<svg xmlns="http://www.w3.org/2000/svg" viewBox="0 0 481.89 198.43"><path d="M467.72 119.06H14.17v61.23s68.03-13.61 136.06-13.61 113.39 13.61 181.42 13.61 136.06-13.61 136.06-13.61v-47.62z" fill="#00abe9"/><path d="M28.19 147.16q.285.57.6 1.14c.315.57.51.75.89 1.14.61.61 1.33 1.06 2.15 1.32.82.27 1.66.4 2.52.4.71 0 1.33-.1 1.87-.3s.99-.46 1.35-.79q.54-.495.81-1.11c.27-.615.26-.84.26-1.28 0-.54-.11-.99-.32-1.37-.21-.37-.5-.68-.88-.92a5.4 5.4 0 00-1.34-.6c-.52-.16-1.09-.3-1.7-.42-.58-.12-1.24-.27-2-.48-.76-.2-1.48-.52-2.16-.95a5.7 5.7 0 01-1.73-1.73c-.47-.72-.71-1.67-.71-2.84 0-.56.1-1.2.3-1.93s.59-1.42 1.15-2.07c.57-.65 1.36-1.2 2.38-1.66 1.02-.45 2.35-.68 4-.68.21 0 .53 0 .95.03.42.02.89.09 1.4.2s1.03.3 1.57.55 1.03.6 1.47 1.07c.61.63 1 1.27 1.17 1.9q.24.945.3 1.47l-1.18.32c-.13-.33-.27-.61-.4-.86s-.34-.51-.6-.78c-.44-.44-1.01-.79-1.7-1.05s-1.48-.39-2.36-.39c-.58 0-1.13.07-1.66.2s-.99.33-1.38.59-.71.59-.95.98-.36.85-.36 1.37c0 .12 0 .26.03.43.02.17.07.36.14.55.15.38.36.7.63.94s.59.44.95.59.78.28 1.24.39q.69.165 1.53.33c.35.08.73.17 1.17.27.43.11.86.24 1.3.4.43.16.85.37 1.27.6.41.24.78.52 1.11.85.5.46.89 1.03 1.18 1.7s.43 1.41.43 2.22c0 .88-.17 1.71-.5 2.48-.34.77-.76 1.43-1.28 1.99-.56.58-1.16 1.02-1.81 1.32-.65.31-1.29.53-1.9.68-.61.14-1.17.23-1.66.25q-.735.03-1.05.03c-.27 0-.63-.01-1.08-.04s-.95-.1-1.48-.23c-.54-.12-1.09-.32-1.66-.59s-1.09-.64-1.57-1.12c-.35-.35-.63-.7-.85-1.07-.22-.36-.4-.73-.53-1.09s-.24-.71-.3-1.04c-.07-.32-.12-.62-.16-.89l1.15-.4zm25.38-14.45h1.41l9.33 20.33h-4.38l-2.02-4.49H49.5l-2.02 4.49h-3.57l9.65-20.33zm.08 6.56l-2.94 6.59h5.96zm12.76-6.56h4.09v17.48h9.19v2.85H66.41zm15.87 0h4.09v17.48h9.19v2.85H82.28zm15.87-.03h12.7v2.79h-8.61v5.65h7.55v2.79h-7.55v6.34h9.82v2.79H98.15zm25.08.03h7.32c.48 0 1.04.01 1.67.04s1.3.12 1.99.29c.69.16 1.39.42 2.1.76.71.35 1.38.83 2.02 1.44.94.92 1.66 2.06 2.16 3.43.5 1.36.75 2.76.75 4.18s-.24 2.75-.72 4.06a9.6 9.6 0 01-2.19 3.46c-.6.6-1.2 1.07-1.83 1.42-.62.36-1.29.62-1.99.81-.7.18-1.44.3-2.2.36-.77.06-1.59.09-2.48.09h-6.6v-20.33zm6.92 17.54c.87 0 1.71-.12 2.54-.35s1.55-.65 2.17-1.27c.75-.77 1.28-1.66 1.57-2.68.3-1.02.45-2.06.45-3.14 0-1.63-.28-2.97-.84-4-.56-1.04-1.18-1.8-1.88-2.28-.44-.29-.91-.51-1.42-.68-.5-.16-1.04-.28-1.6-.35s-1.17-.1-1.81-.1-1.31 0-2.02.03v14.8h2.83zm14.97-17.57h12.7v2.79h-8.61v5.65h7.55v2.79h-7.55v6.34h9.82v2.79h-13.91zm25.14 0h7.23c.82 0 1.65.05 2.46.14.82.1 1.61.41 2.38.95.56.38 1.02.9 1.4 1.54.37.64.56 1.4.56 2.26s-.17 1.54-.5 2.09c-.34.55-.72.99-1.15 1.33s-.86.58-1.28.72-.73.25-.92.3c.44.06.94.14 1.5.26s1.11.37 1.67.75c.4.29.73.61.99.98s.46.73.59 1.08.23.7.27 1.02a5.66 5.66 0 01-.19 2.59c-.17.52-.39.98-.65 1.37s-.53.72-.81.98-.51.47-.71.62q-1.155.84-2.58 1.11c-.95.18-2.09.27-3.41.27h-6.85zm4.09 9.01c.48-.02.99-.04 1.55-.06.55-.02 1.07-.09 1.55-.2.82-.21 1.47-.59 1.96-1.14s.73-1.22.73-2.03-.23-1.47-.7-2-1.17-.86-2.11-.99c-.15-.02-.36-.03-.62-.03h-2.36zm0 8.82h1.84c.5 0 .92 0 1.28-.03.35-.02.65-.05.89-.1s.47-.11.7-.19c.67-.25 1.22-.67 1.66-1.25s.66-1.3.66-2.15c0-.92-.23-1.64-.69-2.15s-1-.88-1.63-1.11-1.27-.36-1.91-.4-1.13-.06-1.48-.06c-.23 0-.45 0-.67.01-.22 0-.44.01-.65.01v7.4zm21.95-17.8h1.41l9.33 20.33h-4.38l-2.02-4.49h-8.41l-2.02 4.49h-3.57l9.65-20.33zm.08 6.56l-2.94 6.59h5.96zm12.76-6.56h4.09v20.33h-4.09zm9.27 0h3.66l10.25 11.52c.15.19.27.34.35.45.08.1.22.26.43.48v-12.44h3.23v20.56h-1.01l-13.62-15.21v14.98h-3.28v-20.33zm22.3 14.45q.285.57.6 1.14c.315.57.51.75.89 1.14.61.61 1.33 1.06 2.15 1.32.82.27 1.66.4 2.52.4.71 0 1.33-.1 1.87-.3s.99-.46 1.35-.79q.54-.495.81-1.11c.27-.615.26-.84.26-1.28 0-.54-.11-.99-.32-1.37-.21-.37-.5-.68-.88-.92a5.4 5.4 0 00-1.34-.6c-.52-.16-1.09-.3-1.7-.42-.58-.12-1.24-.27-2-.48-.76-.2-1.48-.52-2.16-.95a5.7 5.7 0 01-1.73-1.73c-.47-.72-.71-1.67-.71-2.84 0-.56.1-1.2.3-1.93s.59-1.42 1.15-2.07c.57-.65 1.36-1.2 2.38-1.66 1.02-.45 2.35-.68 4-.68.21 0 .53 0 .95.03.42.02.89.09 1.4.2s1.03.3 1.57.55 1.03.6 1.47 1.07c.61.63 1 1.27 1.17 1.9q.24.945.3 1.47l-1.18.32c-.13-.33-.27-.61-.4-.86s-.34-.51-.6-.78c-.44-.44-1.01-.79-1.7-1.05s-1.48-.39-2.36-.39c-.58 0-1.13.07-1.66.2s-.99.33-1.38.59-.71.59-.95.98-.36.85-.36 1.37c0 .12 0 .26.03.43.02.17.07.36.14.55.15.38.36.7.63.94s.59.44.95.59.78.28 1.24.39q.69.165 1.53.33c.35.08.73.17 1.17.27.43.11.86.24 1.3.4.43.16.85.37 1.27.6.41.24.78.52 1.11.85.5.46.89 1.03 1.18 1.7s.43 1.41.43 2.22c0 .88-.17 1.71-.5 2.48-.34.77-.76 1.43-1.28 1.99-.56.58-1.16 1.02-1.81 1.32-.65.31-1.29.53-1.9.68-.61.14-1.17.23-1.66.25q-.735.03-1.05.03c-.27 0-.63-.01-1.08-.04s-.95-.1-1.48-.23c-.54-.12-1.09-.32-1.66-.59s-1.09-.64-1.57-1.12c-.35-.35-.63-.7-.85-1.07-.22-.36-.4-.73-.53-1.09s-.24-.71-.3-1.04c-.07-.32-.12-.62-.16-.89l1.15-.4zm33.2-4.29c0 .5-.09.97-.26 1.43-.17.45-.42.85-.73 1.2-.32.35-.7.62-1.17.82s-.97.3-1.53.3-1.09-.1-1.55-.3-.86-.48-1.2-.82-.6-.74-.78-1.2-.27-.93-.27-1.43.09-.95.27-1.4q.27-.675.78-1.2c.34-.35.74-.62 1.21-.84s.98-.32 1.54-.32c.52 0 1 .1 1.44.29q.66.285 1.17.78c.34.33.6.72.79 1.18s.29.96.29 1.5zm29.23 5.59c-.1.31-.27.76-.53 1.37s-.7 1.2-1.31 1.8c-.5.48-1.04.85-1.61 1.12s-1.14.47-1.68.6-1.06.22-1.54.24c-.48.03-.86.04-1.15.04-1.1 0-2.05-.1-2.87-.29s-1.51-.43-2.09-.71-1.05-.57-1.42-.88c-.38-.31-.67-.57-.88-.78-.69-.69-1.24-1.41-1.64-2.15s-.71-1.46-.92-2.17-.35-1.39-.4-2.03c-.06-.64-.09-1.2-.09-1.66 0-1.67.26-3.18.79-4.54s1.26-2.5 2.2-3.46c.94-.95 2.04-1.68 3.31-2.2s2.65-.78 4.15-.78q1.695 0 3.3.45c1.07.3 1.99.85 2.78 1.66.61.62 1.01 1.19 1.18 1.73s.31 1.02.4 1.44l-1.15.35c-.15-.27-.31-.53-.47-.79s-.35-.49-.56-.71c-.42-.44-.99-.82-1.71-1.12-.72-.31-1.57-.46-2.55-.46s-1.88.18-2.77.53c-.88.35-1.66.88-2.33 1.57s-1.2 1.56-1.6 2.59c-.39 1.04-.59 2.23-.59 3.57 0 1.13.15 2.2.46 3.21s.76 1.89 1.37 2.63c.6.75 1.34 1.35 2.2 1.79q1.29.66 3 .66c.9 0 1.67-.12 2.32-.38.64-.25 1.18-.54 1.63-.86.44-.33.79-.66 1.05-1.01s.46-.62.59-.83l1.15.43zm10.46-15.75h1.41l9.33 20.33h-4.38l-2.02-4.49h-8.41l-2.02 4.49h-3.57l9.65-20.33zm.08 6.56l-2.94 6.59h5.96zm12.76-6.56h7.23c1.09 0 2.01.08 2.75.23s1.41.42 2 .81c.83.56 1.4 1.24 1.71 2.06.32.82.48 1.59.48 2.32 0 .38-.06.85-.17 1.38s-.37 1.1-.75 1.7q-.63.945-1.32 1.41c-.45.31-.89.57-1.31.78l5.68 9.65h-4.62l-5.2-8.75h-.63c-.17 0-.34 0-.51-.03-.16-.02-.34-.04-.53-.07s-.43-.07-.72-.13v8.99h-4.09v-20.33zm4.09 9.93q.84-.03 1.71-.09c.58-.04 1.15-.17 1.71-.4.25-.12.52-.26.81-.45s.55-.41.8-.68c.24-.27.44-.59.59-.97.15-.37.23-.81.23-1.31 0-.12-.02-.29-.04-.52-.03-.23-.09-.48-.19-.73-.1-.26-.25-.52-.45-.79s-.49-.5-.85-.69c-.42-.23-.86-.38-1.32-.43s-.88-.09-1.29-.09c-.27 0-.55 0-.85.01-.3 0-.58.01-.85.01v7.11zm14.78-9.93h7.23c1.09 0 2.01.08 2.75.23s1.41.42 2 .81c.83.56 1.4 1.24 1.71 2.06.32.82.47 1.59.47 2.32 0 .38-.06.85-.17 1.38s-.37 1.1-.75 1.7q-.63.945-1.32 1.41c-.45.31-.89.57-1.31.78l5.68 9.65h-4.62l-5.2-8.75h-.63c-.17 0-.34 0-.51-.03-.16-.02-.34-.04-.53-.07s-.43-.07-.72-.13v8.99h-4.09v-20.33zm4.08 9.93q.84-.03 1.71-.09c.58-.04 1.15-.17 1.71-.4.25-.12.52-.26.81-.45s.55-.41.8-.68c.24-.27.44-.59.59-.97.15-.37.23-.81.23-1.31 0-.12-.02-.29-.04-.52-.03-.23-.09-.48-.19-.73-.1-.26-.25-.52-.45-.79s-.49-.5-.85-.69c-.42-.23-.86-.38-1.32-.43s-.88-.09-1.29-.09c-.27 0-.55 0-.85.01-.3 0-.58.01-.85.01v7.11zm14.78-9.96h12.7v2.79h-8.61v5.65h7.55v2.79h-7.55v6.34h9.82v2.79h-13.91zm17.05.03h4.09v17.48h9.19v2.85h-13.28zm24.28 0h1.41l9.33 20.33h-4.38l-2.02-4.49h-8.41l-2.02 4.49h-3.57l9.65-20.33zm.08 6.56l-2.94 6.59h5.96zm30.33 12.34c-.38.19-.85.4-1.38.63s-1.15.45-1.84.66-1.45.39-2.29.53c-.83.14-1.75.22-2.75.22s-1.96-.1-2.77-.29-1.51-.43-2.12-.71-1.12-.58-1.54-.91-.78-.63-1.06-.92c-1.06-1.04-1.83-2.22-2.32-3.54s-.73-2.76-.73-4.29c0-1.9.34-3.54 1.01-4.91s1.53-2.51 2.56-3.4c1.04-.89 2.18-1.55 3.43-1.97q1.875-.63 3.63-.63c1.1 0 2.16.16 3.21.49s1.95.89 2.72 1.7c.56.58.93 1.12 1.12 1.64s.34.95.43 1.3l-1.12.43c-.15-.27-.36-.57-.62-.89-.26-.33-.69-.67-1.28-1.04-.94-.61-2.05-.92-3.31-.92-1.06 0-2.03.19-2.94.56-.9.37-1.68.9-2.35 1.58-.66.68-1.18 1.51-1.55 2.48-.38.97-.56 2.05-.56 3.24 0 .94.13 1.91.4 2.89.27.99.69 1.89 1.25 2.69.57.81 1.28 1.47 2.15 1.99.86.52 1.89.78 3.08.78.79 0 1.45-.08 2-.24s1.06-.34 1.54-.53v-4.7h-3.8v-2.79h7.8v8.88zm4.32-18.93h12.7v2.79h-8.61v5.65h7.55v2.79h-7.55v6.34h9.82v2.79h-13.91z" fill="#fff"/><path d="M47.32 18.49H68.5l31.93 86.97H72.27L68.5 93.51H40.9l-3.99 11.95H14.17zm7.65 33.01l-7.98 24.51h15.63zm113.75-13.43v67.38h-25.5v-9.49c-.74.99-1.63 2.14-2.66 3.45a22 22 0 01-3.77 3.7c-1.48 1.15-3.21 2.12-5.21 2.9s-4.32 1.17-6.98 1.17c-3.77 0-7.11-.78-10.03-2.34s-5.23-3.61-6.93-6.16c-1.85-2.79-2.94-5.79-3.27-8.99s-.5-6.53-.5-9.98V38.07h25.17v41.27c0 .66.04 1.54.11 2.65q.105 1.665.72 3.33a7.06 7.06 0 002 2.89c.92.82 2.23 1.23 3.94 1.23 1.85 0 3.34-.53 4.49-1.6 1.14-1.07 2.12-2.09 2.94-3.08V38.07h25.5zm10.75-19.58h25.5v26.36c.51-.74 1.23-1.66 2.15-2.77s2.06-2.17 3.41-3.2c1.36-1.03 2.97-1.89 4.84-2.59s4.06-1.05 6.56-1.05c4.88 0 9.04 1.13 12.47 3.39 3.44 2.26 6.23 5.11 8.37 8.56s3.69 7.27 4.66 11.46c.96 4.19 1.44 8.21 1.44 12.07q0 8.25-2.22 15.03t-5.88 11.58c-2.44 3.2-5.25 5.67-8.43 7.39s-6.47 2.59-9.87 2.59q-3.75 0-6.45-.99c-1.8-.66-3.38-1.52-4.74-2.59a19.5 19.5 0 01-3.52-3.57c-.99-1.31-1.93-2.59-2.81-3.82v9.12h-25.5V18.49zm25.5 67.13c.81.66 1.8 1.29 2.97 1.91s2.61.92 4.3.92 3.29-.47 4.57-1.42c1.29-.94 2.33-2.2 3.14-3.76s1.41-3.39 1.82-5.48c.4-2.09.61-4.29.61-6.59 0-5.75-1.03-10.12-3.09-13.12s-4.48-4.5-7.27-4.5c-1.47 0-2.74.29-3.8.86-1.07.58-2.15 1.23-3.25 1.97V85.6zm111.64 19.83h-25.5v-8.99c-.81 1.15-1.72 2.36-2.72 3.63q-1.5 1.905-3.66 3.57c-1.44 1.11-3.18 2.01-5.21 2.71s-4.42 1.05-7.15 1.05c-3.25 0-6.12-.6-8.59-1.79-2.48-1.19-4.56-2.79-6.26-4.8s-2.99-4.35-3.88-7.02-1.33-5.52-1.33-8.56c0-3.7.63-7 1.89-9.92 1.26-2.91 2.97-5.36 5.15-7.33q3.27-2.955 7.65-4.5c2.92-1.03 6.04-1.54 9.37-1.54s6.19.33 8.59.99 4.45 1.31 6.15 1.97c0-.99-.04-2.05-.11-3.2a24 24 0 00-.5-3.51c-.26-1.19-.68-2.36-1.28-3.51-.59-1.15-1.44-2.22-2.55-3.2-1.55-1.4-3.09-2.24-4.6-2.52-1.52-.29-2.72-.43-3.6-.43-1.92 0-3.66.29-5.21.86-1.55.58-2.96 1.29-4.22 2.16-1.26.86-2.38 1.79-3.38 2.77-1 .99-1.9 1.93-2.72 2.83l-7.54-7.02c1.33-1.73 2.88-3.51 4.66-5.36 1.77-1.85 3.88-3.53 6.32-5.05s5.3-2.79 8.59-3.82 7.19-1.54 11.7-1.54c3.03 0 5.67.21 7.93.62 2.25.41 4.18.92 5.76 1.54 1.59.62 2.87 1.23 3.83 1.85s1.7 1.09 2.22 1.42q3.765 2.715 5.82 5.85c1.37 2.09 2.38 4.23 3.05 6.4.67 2.18 1.05 4.33 1.17 6.47.11 2.14.17 4.11.17 5.91v41.02zm-25.5-28.94c-1.03-.25-1.96-.45-2.77-.62-.81-.16-1.74-.25-2.77-.25-1.7 0-3.1.27-4.21.8-1.11.54-1.99 1.21-2.66 2.03s-1.15 1.72-1.44 2.71c-.3.99-.44 1.89-.44 2.71 0 1.89.55 3.57 1.66 5.05s2.7 2.22 4.77 2.22c1.85 0 3.36-.47 4.55-1.42 1.18-.94 2.29-2.03 3.33-3.26V76.5zm76.16-58.02h25.5v86.97h-25.5v-8.87c-.59.99-1.35 2.09-2.27 3.33-.92 1.23-2.11 2.4-3.55 3.51s-3.18 2.05-5.21 2.83q-3.045 1.17-7.26 1.17c-4.21 0-7.93-.95-11.14-2.83-3.22-1.89-5.91-4.45-8.09-7.7-2.18-3.24-3.82-7-4.93-11.27s-1.66-8.83-1.66-13.67.55-9.63 1.66-14.1c1.11-4.48 2.77-8.42 4.99-11.82 2.22-3.41 4.95-6.12 8.2-8.13s7.06-3.02 11.42-3.02q3.99 0 6.93.99c1.96.66 3.62 1.48 4.99 2.46 1.37.99 2.53 2.03 3.49 3.14s1.77 2.16 2.44 3.14V18.51zm0 37.69c-1.04-.74-2.07-1.4-3.1-1.97-1.04-.57-2.33-.86-3.88-.86q-4.545 0-7.65 4.62c-2.07 3.08-3.1 7.62-3.1 13.61 0 4.76.87 8.77 2.61 12.01 1.74 3.25 4.38 4.87 7.93 4.87 1.55 0 2.86-.27 3.94-.8a49 49 0 003.27-1.79V56.18zm84.57 33.44v-.03c-1.15.72-2.41 1.36-3.8 1.88-1.66.62-3.53.92-5.6.92-1.92 0-3.71-.25-5.38-.74-1.66-.49-3.31-1.4-4.93-2.71q-3.33-2.58-4.32-5.67c-.67-2.05-1.15-4.06-1.44-6.04h41.35c0-2.22-.08-4.91-.22-8.07-.15-3.16-.68-6.47-1.61-9.92-.92-3.45-2.38-6.84-4.38-10.16-2-3.33-4.81-6.26-8.43-8.81-2.14-1.56-4.79-2.89-7.93-4s-6.82-1.66-11.03-1.66c-5.03 0-9.57.9-13.64 2.71s-7.54 4.33-10.42 7.58-5.12 7.1-6.71 11.58-2.38 9.38-2.38 14.72.79 10.1 2.38 14.54c1.59 4.43 3.86 8.25 6.82 11.46 2.95 3.2 6.56 5.71 10.81 7.51 4.25 1.81 9.07 2.71 14.47 2.71 4.66 0 8.7-.7 12.14-2.09 3.44-1.4 6.34-3.04 8.7-4.93 1.23-.99 2.34-1.98 3.34-2.99zm-25.76-30.36c.26-1.56.7-3.04 1.33-4.43.63-1.4 1.51-2.59 2.66-3.57 1.14-.99 2.64-1.48 4.49-1.48 2 0 3.57.51 4.71 1.54a10.1 10.1 0 012.6 3.7c.59 1.44.96 2.92 1.11 4.43.15 1.52.26 2.81.33 3.88h-17.85c.15-1.15.35-2.5.61-4.06zM94.66 18.49v3.06h-5.38v2.14h4.45v2.78h-4.45v2.56h6.13v3.06H84.29V18.48h10.37zm4.79 9.44c.15.2.33.42.52.64s.42.42.68.61.57.34.92.46.76.18 1.23.18c.69 0 1.23-.13 1.61-.4.38-.26.57-.6.57-1.01 0-.22-.04-.4-.12-.55s-.19-.27-.31-.37-.25-.17-.39-.22-.25-.09-.34-.12c-.1-.04-.3-.09-.58-.15s-.59-.13-.91-.2-.62-.14-.91-.21a10 10 0 01-.6-.16q-.225-.075-.72-.27a3.4 3.4 0 01-.99-.62c-.33-.28-.63-.65-.88-1.11s-.38-1.04-.38-1.74c0-.51.1-1.04.31-1.57s.54-1.02 1-1.45c.46-.44 1.07-.8 1.81-1.08s1.65-.43 2.72-.43c.98 0 1.79.09 2.44.27s1.19.41 1.63.69.79.59 1.05.92.5.65.7.95l-1.93 1.23c-.12-.15-.25-.32-.4-.48a3 3 0 00-1.3-.84c-.3-.1-.65-.15-1.06-.15-.71 0-1.22.14-1.54.41-.32.28-.48.6-.48.97 0 .27.06.48.19.62s.28.25.44.33c.12.06.34.14.68.22.33.08.69.17 1.07.27s.74.19 1.09.27.59.15.73.2c.17.05.41.15.74.28.33.14.66.34.98.62.33.28.61.64.86 1.09s.37 1.01.37 1.68-.15 1.31-.46 1.89-.74 1.08-1.3 1.5-1.24.75-2.03.99-1.68.36-2.64.36c-1.04 0-1.92-.13-2.63-.39s-1.3-.56-1.75-.92q-.69-.54-1.05-1.11c-.24-.38-.43-.68-.56-.92l1.91-1.19zm13.51-9.46h7.71c.28 0 .59 0 .93.02.33.01.67.05 1.01.12s.68.18 1.02.34.66.37.97.65c.31.27.55.56.72.86s.3.6.39.88c.08.28.14.55.15.79.02.24.03.44.03.58 0 .75-.16 1.44-.49 2.08s-.89 1.16-1.69 1.54c-.37.18-.76.32-1.16.42s-.83.18-1.3.22-.97.07-1.51.08c-.54 0-1.14.01-1.79.01v5.03h-4.99zm5 6.8c.33 0 .68-.02 1.05-.05q.555-.045.99-.3c.33-.18.58-.43.73-.74.15-.32.23-.67.23-1.05 0-.27-.06-.56-.19-.89-.13-.32-.41-.57-.85-.73-.22-.09-.47-.15-.75-.17s-.69-.04-1.21-.06zm12.91-6.78h3.68l5.55 13.61h-4.89l-.66-1.87h-4.8l-.69 1.87h-3.95zm1.33 5.16l-1.39 3.84h2.72zm22.58 5.76c-.15.21-.39.48-.69.83-.31.35-.72.68-1.23 1.01s-1.14.61-1.89.85-1.63.36-2.66.36c-1.21 0-2.26-.2-3.16-.6s-1.65-.92-2.24-1.58a6.5 6.5 0 01-1.35-2.23 7.5 7.5 0 01-.45-2.55c0-.81.15-1.65.44-2.51.3-.87.75-1.66 1.38-2.38.62-.72 1.42-1.31 2.39-1.77s2.12-.69 3.46-.69c.87 0 1.63.1 2.27.3s1.2.45 1.67.75.86.62 1.19.96c.32.34.6.65.83.92l-1.87 1.45c-.14-.17-.3-.34-.46-.53q-.255-.285-.6-.51c-.23-.15-.5-.28-.8-.39s-.65-.15-1.05-.15c-.68 0-1.26.13-1.73.4-.47.26-.85.6-1.14 1.01s-.5.87-.64 1.38c-.13.51-.2 1-.2 1.49 0 .66.1 1.24.29 1.75s.45.95.78 1.3a3.43 3.43 0 002.54 1.09c.42 0 .82-.06 1.18-.17s.68-.26.95-.42.51-.34.71-.51.36-.31.47-.41l1.62 1.58zm13.19-10.92v3.06h-5.38v2.14h4.45v2.78h-4.45v2.56h6.13v3.06H157.6V18.48h10.37z" fill="#004681"/></svg>