<?xml version="1.0" encoding="utf-8"?>
<svg version="1.0" id="comptoir-des-fers" xmlns="http://www.w3.org/2000/svg" xmlns:xlink="http://www.w3.org/1999/xlink" x="0px" y="0px"
	 viewBox="0 0 588 100" style="enable-background:new 0 0 588 100;" xml:space="preserve">
<style type="text/css">
	.st0{fill:#E30613;}
	.st1{fill:#004380;}
	.st2{fill:#0F447E;}
</style>
<g id="ebat">
	<g>
		<g>
			<polygon class="st0" points="46,6.5 19.4,21.3 19.4,37.1 45.6,21.9 72.6,37.1 72.6,22.4 			"/>
		</g>
		<g>
			<polygon class="st0" points="6.2,46 6.2,77.6 32.3,93.5 45,85.6 18.6,70.4 18.6,39.5 			"/>
		</g>
		<g>
			<polygon class="st0" points="73.6,70.4 47.3,85.6 59.9,93.5 86.1,77.6 86.1,46 73.6,39.5 			"/>
		</g>
		<g>
			<polygon class="st1" points="47,54.5 47,83.6 60.2,76.1 60.2,61.7 71.3,54.7 71.3,40.6 			"/>
		</g>
		<g>
			<polygon class="st1" points="21.2,54.7 32.1,61.7 32.1,76.1 45.6,83.6 45.6,54.5 21.2,40.6 			"/>
		</g>
		<circle class="st1" cx="46.5" cy="39.3" r="10.2"/>
	</g>
</g>
<g id="nom">
	<g>
		<path class="st2" d="M130.8,32.4v9.4c-2-1-3.7-1.5-5.5-1.5c-1.5,0-3,0.5-4.3,1.3c-1.3,0.8-2.2,2-2.8,3.5c-0.5,1.5-1,3-1,4.7
			c0,1.7,0.2,3.2,1,4.7c0.7,1.5,1.5,2.5,2.8,3.2c1.3,0.7,2.5,1,4.3,1c0.7,0,1.7,0,2.8-0.2c1-0.2,2-0.5,3-1v9.4c-1.3,0.5-2.5,0.7-4,1
			c-1.5,0.2-2.8,0.5-4,0.5c-2.8,0-5.5-0.5-7.7-1.7c-1.7-1-3.5-2.2-4.7-3.7c-1.3-1.7-2.5-3.5-3-5.5c-0.7-2-1-4.5-1-7.5
			c0-3,0.5-5.8,1.3-7.9c0.8-2.2,2-4,3.5-5.8c1.5-1.5,3.2-2.8,4.9-3.5c2.5-1,4.9-1.5,7.7-1.5C126.1,31.4,128.3,31.8,130.8,32.4z"/>
		<path class="st2" d="M148,31.4c2.5,0,4.9,0.5,7.2,1.5c1.5,0.7,3,1.7,4.3,3.2c1.3,1.5,2.2,3.2,2.8,4.9c1,2.5,1.3,5.5,1.3,9
			c0,2.8-0.2,5.2-1,7.7c-0.7,2.2-1.7,4.3-3,5.8s-2.8,2.8-4.5,3.5c-2.2,1-4.5,1.5-7.3,1.5c-2.8,0-4.9-0.5-7.2-1.7
			c-1.5-0.7-3-2-4.3-3.2c-1.3-1.5-2.2-3-2.8-4.9c-1-2.5-1.3-5.5-1.3-9c0-2.8,0.2-5.2,1-7.5c0.8-2.3,1.5-4,2.8-5.8
			c1.3-1.5,2.8-2.8,4.3-3.7C142.6,31.8,145,31.4,148,31.4z M148,59.9c1,0,1.7-0.2,2.5-1c0.7-0.5,1.3-1.5,1.5-3
			c0.2-1.5,0.5-3.5,0.5-6c0-1.5,0-3-0.2-4.5c-0.2-1.5-0.5-2.5-0.7-3.2c-0.2-0.7-0.7-1.5-1.3-2c-0.5-0.5-1.3-0.7-2-0.7
			s-1.5,0.2-2.2,1c-0.7,0.5-1.3,1.7-1.5,3.2c-0.5,1.5-0.5,3.7-0.5,6.4c0,3.5,0.5,6.2,1.5,7.9C145.8,59.4,146.7,59.9,148,59.9z"/>
		<path class="st2" d="M166.6,32h15.9l3.7,19.4l3.7-19.4h15.9v35.6h-9.7l-0.2-28.1l-5.8,28.1h-9l-5.5-28.1l-0.2,28.1h-9.2V32H166.6z
			"/>
		<path class="st2" d="M210.2,32h18.4c2,0,3.7,0.2,4.9,1c1.7,0.7,3,2.2,4.3,4.3c1,2,1.5,4.5,1.5,7.5c0,2-0.2,3.5-0.5,4.9
			c-0.5,1.3-1,2.5-1.5,3.5c-0.5,1-1.3,1.7-2,2.5c-0.7,0.5-1.7,1-2.8,1.5c-1,0.5-2.5,0.5-4,0.5h-7.5v10.5h-10.9L210.2,32L210.2,32z
			 M220.6,40.3v9h3c1.7,0,2.8-0.5,3.5-1.3c0.7-0.7,1-2,1-3.2c0-1.5-0.2-2.5-1-3.2c-0.8-0.7-1.7-1-3-1h-3.5V40.3z"/>
		<path class="st2" d="M240.7,32h29.8v10.5h-9.4v25.1h-10.9V42.5h-9.4V32L240.7,32z"/>
		<path class="st2" d="M287.3,31.4c2.5,0,4.9,0.5,7.2,1.5c1.5,0.7,3,1.7,4.3,3.2c1.3,1.5,2.2,3.2,2.8,4.9c1,2.5,1.3,5.5,1.3,9
			c0,2.8-0.2,5.2-1,7.7c-0.7,2.2-1.7,4.3-3,5.8c-1.3,1.5-2.8,2.8-4.5,3.5c-2.2,1-4.5,1.5-7.2,1.5s-4.9-0.5-7.2-1.7
			c-1.5-0.7-3-2-4.3-3.2c-1.3-1.5-2.2-3-2.8-4.9c-1-2.5-1.3-5.5-1.3-9c0-2.8,0.2-5.2,1-7.5c0.8-2.3,1.5-4,2.8-5.8
			c1.3-1.5,2.8-2.8,4.3-3.7C281.8,31.8,284.6,31.4,287.3,31.4z M287.6,59.9c1,0,1.7-0.2,2.5-1c0.7-0.5,1.3-1.5,1.5-3
			c0.2-1.5,0.5-3.5,0.5-6c0-1.5,0-3-0.2-4.5c-0.2-1.5-0.5-2.5-0.7-3.2s-0.7-1.5-1.3-2c-0.5-0.5-1.3-0.7-2-0.7s-1.5,0.2-2.2,1
			c-0.7,0.5-1.3,1.7-1.5,3.2c-0.5,1.5-0.5,3.7-0.5,6.4c0,3.5,0.5,6.2,1.5,7.9C285.3,59.4,286.1,59.9,287.6,59.9z"/>
		<path class="st2" d="M316.9,32v35.6h-10.7V32H316.9z"/>
		<path class="st2" d="M320.9,32h17.8c1.3,0,2.5,0,3.2,0.2c1,0.2,2,0.7,3,1.3c1,0.5,1.7,1.3,2.2,2.2c0.7,0.7,1,1.7,1.5,2.8
			c0.2,1,0.5,2,0.5,3.5c0,1,0,2-0.2,3c-0.2,1-0.5,1.7-0.7,2.2c-0.2,0.7-0.7,1.3-1,1.5c-0.5,0.7-1.3,1.3-2,1.5
			c-0.5,0.2-1.3,0.7-2.5,1c1,0.2,2,0.7,2.8,1.3c0.7,0.5,1.3,1.3,1.7,2c0.5,0.7,0.7,1.7,1,2.8c0.2,0.7,0.5,2.2,0.7,4.5
			c0.5,3.2,1,5.2,1.3,6.2H339l-1-7.7c-0.2-1.5-0.5-2.8-1-3.2c-0.5-0.5-1.5-1-2.5-1h-2.5v12h-10.7V32L320.9,32L320.9,32z M331.1,40.1
			v7.7h3.2c1.3,0,2.2-0.2,2.8-0.5c0.7-0.7,1.3-1.7,1.3-3.2c0-1.5-0.2-2.5-1-3.2c-0.5-0.5-1.5-0.7-3-0.7h-3.2V40.1z"/>
		<path class="st2" d="M367.7,32h13.5c2.5,0,4.3,0,5.5,0.2c1.7,0.5,3.5,1,4.7,2c1.3,1,2.5,2,3.2,3.5c0.7,1.5,1.5,3.2,2,5.2
			c0.5,2,0.7,4.3,0.7,6.7c0,2.8-0.2,5.2-1,7.7c-0.5,1.7-1,3-1.7,4.3c-0.7,1.3-1.7,2.2-2.5,3c-1,0.7-2.2,1.5-4,2
			c-1.7,0.5-3.7,1-6.2,1h-14.2L367.7,32L367.7,32z M378.6,40.6v18.6h2.2c1,0,1.7-0.2,2.5-0.5c0.7-0.2,1.3-0.7,1.5-1.5
			c0.5-0.7,0.7-1.7,1-3.2c0.2-1.3,0.2-2.8,0.2-4.5c0-2.5-0.2-4.3-0.5-5.5c-0.5-1.3-1-2.2-1.7-2.8c-0.7-0.5-1.7-0.7-3-0.7L378.6,40.6
			L378.6,40.6z"/>
		<path class="st2" d="M400.2,32h24.4v8.4h-13.9v4.9h13.5v8.4h-13.5V59h14.2v8.4h-24.6V32z"/>
		<path class="st2" d="M427.4,66.7v-9.2c1.5,0.7,3,1.3,4.7,1.7c1.7,0.5,3.2,0.5,4.9,0.5c2,0,3.5-0.2,4.3-1c0.5-0.2,0.7-0.7,0.7-1.5
			c0-0.5-0.2-1-0.5-1.3s-1-0.7-2-1c-1.5-0.2-3-0.7-4.5-1.3c-1.7-0.5-3-1.3-4-2c-0.7-0.5-1.5-1.3-2-2c-0.5-0.7-1-1.7-1.3-3
			c-0.2-1.3-0.5-2.5-0.5-3.7c0-1.7,0.2-3.2,0.7-4.5c0.5-1.3,1-2.5,1.7-3.2c0.7-1,1.7-1.7,2.8-2.2c0.7-0.5,1.5-0.7,2.5-1
			c1.7-0.5,4-0.7,6-0.7c1.7,0,3.5,0.2,5.2,0.5c1.7,0.2,3.5,0.5,4.7,1v9.2c-1-0.5-2.5-1-4-1.3c-1.7-0.2-3.2-0.5-4.5-0.5
			c-1.5,0-2.5,0.2-3.5,0.7c-0.7,0.5-1.3,1-1.3,1.7c0,0.5,0,0.7,0.2,1c0.2,0.2,0.7,0.5,1.5,0.7c0.2,0,1.5,0.5,3.7,1
			c1.5,0.5,2.8,0.7,3.5,1.3c1.3,0.5,2,1,2.8,1.7c0.7,0.7,1.3,1.3,1.7,2c0.5,0.7,0.7,1.5,1,2.8c0.2,1,0.5,2.2,0.5,3.2
			c0,2.2-0.2,4-1,5.5c-0.7,1.5-1.7,2.8-3,3.5c-1.3,1-3,1.7-4.9,2.2c-2,0.5-3.7,0.7-5.8,0.7c-1.7,0-3.7-0.2-5.5-0.5
			C431.3,67.6,429.6,67.1,427.4,66.7z"/>
		<path class="st2" d="M470.7,32h24.2v8.4h-13.7v5.8h13.2v8.7h-12.9v12.7h-10.9V32H470.7z"/>
		<path class="st2" d="M497.8,32h24.4v8.4h-13.9v4.9h13.5v8.4h-13.5V59h14.2v8.4h-24.6V32z"/>
		<path class="st2" d="M525.3,32h18c1.3,0,2.5,0,3.2,0.2c1,0.2,2,0.7,3,1.3c1,0.5,1.7,1.3,2.2,2.2c0.7,0.7,1,1.7,1.5,2.8
			c0.2,1,0.5,2,0.5,3.5c0,1,0,2-0.2,3c-0.2,1-0.5,1.7-0.7,2.2c-0.2,0.7-0.7,1.3-1,1.5c-0.5,0.7-1.3,1.3-2,1.5
			c-0.5,0.2-1.3,0.7-2.5,1c1,0.2,2,0.7,2.8,1.3c0.7,0.5,1.3,1.3,1.7,2c0.5,0.7,0.7,1.7,1,2.8c0.2,0.7,0.5,2.2,0.7,4.5
			c0.5,3.2,1,5.2,1.3,6.2h-11.2l-1-7.7c-0.2-1.5-0.5-2.8-1-3.2c-0.5-0.5-1.5-1-2.5-1h-2.5v12h-10.7V32L525.3,32L525.3,32z
			 M535.6,40.1v7.7h3.2c1.3,0,2.2-0.2,2.8-0.5c0.7-0.7,1.3-1.7,1.3-3.2c0-1.5-0.2-2.5-1-3.2c-0.5-0.5-1.5-0.7-3-0.7h-3.2V40.1z"/>
		<path class="st2" d="M556.3,66.7v-9.2c1.5,0.7,3,1.3,4.7,1.7c1.7,0.5,3.2,0.5,4.9,0.5c2,0,3.5-0.2,4.3-1c0.5-0.2,0.7-0.7,0.7-1.5
			c0-0.5-0.2-1-0.5-1.3c-0.2-0.2-1-0.7-2-1c-1.5-0.2-3-0.7-4.5-1.3c-1.5-0.5-3-1.3-4-2c-0.7-0.5-1.5-1.3-2-2c-0.5-0.7-1-1.7-1.3-3
			s-0.5-2.5-0.5-3.7c0-1.7,0.2-3.2,0.7-4.5c0.5-1.3,1-2.5,1.7-3.2c0.7-1,1.7-1.7,2.8-2.2c0.7-0.5,1.5-0.7,2.5-1c1.7-0.5,4-0.7,6-0.7
			c1.7,0,3.5,0.2,5.2,0.5c1.7,0.2,3.5,0.5,4.7,1v9.2c-1-0.5-2.5-1-4-1.3c-1.7-0.2-3.2-0.5-4.5-0.5c-1.5,0-2.5,0.2-3.5,0.7
			c-0.7,0.5-1.3,1-1.3,1.7c0,0.5,0,0.7,0.2,1c0.2,0.2,0.7,0.5,1.5,0.7c0.2,0,1.5,0.5,3.7,1c1.5,0.5,2.8,0.7,3.5,1.3
			c1.3,0.5,2,1,2.8,1.7s1.3,1.3,1.7,2c0.5,0.7,0.7,1.5,1,2.8c0.2,1,0.5,2.2,0.5,3.2c0,2.2-0.2,4-1,5.5c-0.7,1.5-1.7,2.8-3,3.5
			c-1.3,1-3,1.7-4.9,2.2c-2,0.5-3.7,0.7-5.8,0.7c-1.7,0-3.7-0.2-5.5-0.5C560.2,67.6,558.5,67.1,556.3,66.7z"/>
	</g>
</g>
</svg>
